<svg id="filled_outline" height="512" viewBox="0 0 512 512" width="512" xmlns="http://www.w3.org/2000/svg" data-name="filled outline"><path d="m183.716 440.686h56.569v22.627h-56.569z" fill="#e87000" transform="matrix(.707 -.707 .707 .707 -257.519 282.294)"/><path d="m488 74.90991a50.90953 50.90953 0 0 1 -14.90991 36l-15.43018 15.42993-11.31982 11.32007-16.68018 16.67993-11.31982 11.32007-16.68018 16.67993-11.31982 11.32007-16.68018 16.67993-11.31982 11.32007-16.68018 16.67993-11.31982 11.32007-16.68018 16.67993-11.31982 11.32007-16.68018 16.67993-11.31982 11.32007-16.68018 16.67993-11.31991 11.32007-16.68 16.67993-11.32 11.32007-16.68 16.67993-11.32 11.32007-16.68 16.67993-11.32 11.32007-20.68 20.67993-11.32 11.32007-38.34 38.34009-72-72 377.09009-377.09009a50.90991 50.90991 0 0 1 86.90991 36z" fill="#ffc431"/><path d="m320 72-264 264h-16l-16-16v-16l264-264z" fill="#548aff"/><path d="m336 24-16 48-32-32z" fill="#ffceb6"/><path d="m80 312-24 24h-16l-16-16v-16l24-24z" fill="#d1e4ff"/><path d="m59.029 261.373h33.941v45.255h-33.941z" fill="#ffc431" transform="matrix(.707 -.707 .707 .707 -178.558 136.922)"/><path d="m175.951 301.373h328.098v45.255h-328.098z" fill="#f78e00" transform="matrix(.707 -.707 .707 .707 -129.519 335.314)"/><path d="m217.373 401.373h45.255v45.255h-45.255z" fill="#ffa100" transform="matrix(.707 -.707 .707 .707 -229.519 293.892)"/><path d="m472 224-32-32 48-16z" fill="#e87000"/><path d="m488 384v16l-88 88-56-56 88-88h16z" fill="#ff9178"/><path d="m360.402 392.402h79.196v79.196h-79.196z" fill="#ef5e3b" transform="matrix(.707 -.707 .707 .707 -188.313 409.373)"/><path d="m437.08838 16a58.52589 58.52589 0 0 0 -41.65674 17.25488l-377.08838 377.08789a8.00063 8.00063 0 0 0 0 11.31446l72 72a8.00063 8.00063 0 0 0 11.31348 0l377.08838-377.08789a58.91222 58.91222 0 0 0 -41.65674-100.56934zm30.34326 89.25488-15.4314 15.4314-22.3435-22.34351-11.31348 11.31446 22.343 22.343-16.686 16.686-22.3435-22.34351-11.31348 11.31446 22.343 22.343-16.686 16.686-22.3435-22.34351-11.31348 11.31446 22.343 22.343-16.686 16.686-22.3435-22.34351-11.31348 11.31446 22.343 22.343-16.686 16.686-22.3435-22.34351-11.31348 11.31446 22.343 22.343-16.686 16.686-22.3435-22.34351-11.31348 11.31446 22.343 22.343-16.686 16.686-22.3435-22.34351-11.31348 11.31446 22.343 22.343-16.686 16.686-22.3435-22.34351-11.31348 11.31446 22.343 22.343-16.686 16.686-22.3435-22.34351-11.31348 11.31446 22.343 22.343-16.686 16.686-22.3435-22.34351-11.31348 11.31446 22.343 22.343-16.686 16.686-22.3435-22.34351-11.31348 11.31446 22.343 22.343-20.686 20.686-22.3435-22.34351-11.31348 11.31446 22.343 22.343-32.68648 32.68684-60.68652-60.68652 371.43164-371.43066a42.9115 42.9115 0 1 1 60.68652 60.68554z"/><circle cx="448" cy="64" r="8"/><path d="m34.34326 341.65723a8.00035 8.00035 0 0 0 5.65674 2.34277h16a8.00035 8.00035 0 0 0 5.65674-2.34277l264-264a8.0039 8.0039 0 0 0 1.93262-3.127l16-48a8.0002 8.0002 0 0 0 -10.11915-10.12011l-48 16a8.01033 8.01033 0 0 0 -3.127 1.93261l-264 264a8.00076 8.00076 0 0 0 -2.34321 5.65727v16a8.00076 8.00076 0 0 0 2.34326 5.65723zm274.343-269.657-204.6862 204.68577-20.68634-20.68624 204.686-204.686zm-216.00016 215.99977-12.6861 12.686-20.68628-20.68624 12.686-12.686zm223.818-230.80981-13.69409-13.6941 20.541-6.84668zm-284.5041 250.12329 15.99976-15.99976 20.68624 20.68628-16 16h-9.372l-11.314-11.31348z"/><path d="m178.34326 469.65723 16 16a8.00063 8.00063 0 0 0 11.31348 0l26.34326-26.34323 2.34326 2.34327a8.00063 8.00063 0 0 0 11.31348 0l6.34326-6.34327 14.34326 14.34327a8.00063 8.00063 0 0 0 11.31348 0l64-64-11.31348-11.31446-58.34326 58.34371-8.686-8.68652 214.34274-214.34277a8.0039 8.0039 0 0 0 1.93262-3.127l16-48a8.0002 8.0002 0 0 0 -10.11915-10.12011l-48 16a8.01033 8.01033 0 0 0 -3.127 1.93261l-232 232a8.00034 8.00034 0 0 0 0 11.31446l2.34279 2.34281-26.34278 26.34277a8.00034 8.00034 0 0 0 .00004 11.31446zm282.343-245.657-188.686 188.686-20.68652-20.68652 188.686-188.686zm7.81787-14.81-13.69409-13.6941 20.541-6.84668zm-228.50437 194.12349 20.68652 20.68652-20.68628 20.68628-20.68652-20.68652zm-23.99982 40.00028 4.68616 4.686-20.6861 20.68652-4.68652-4.68652z"/><path d="m453.65674 338.34277a8.00035 8.00035 0 0 0 -5.65674-2.34277h-16a8.00035 8.00035 0 0 0 -5.65674 2.34277l-88 88a8.00034 8.00034 0 0 0 0 11.31446l56 56a8.00063 8.00063 0 0 0 11.31348 0l88-88a8.00076 8.00076 0 0 0 2.34326-5.65723v-16a8.00076 8.00076 0 0 0 -2.34326-5.65723zm-53.65674 138.34375-44.68652-44.68652 44.68628-44.68628 44.68652 44.68652zm80-80-23.99976 23.99976-44.68652-44.68652 23.99976-23.99976h9.373l35.31352 35.31348z"/><path d="m192 86.62695a30.6276 30.6276 0 0 0 -52.28467-21.65625l-58.74463 58.74512a30.6276 30.6276 0 0 0 43.31348 43.31445l58.74512-58.74609a30.426 30.426 0 0 0 8.9707-21.65723zm-79.0293 69.08887a14.62724 14.62724 0 1 1 -20.68652-20.68555l20.97644-20.97656a30.74633 30.74633 0 0 0 20.68628 20.68579zm58.74463-58.74512-18.7489 18.749a14.62726 14.62726 0 0 1 -20.68268-20.68946l18.74555-18.74606a14.62741 14.62741 0 1 1 20.686 20.68652z"/></svg>